<svg width="335" height="335" viewBox="0 0 335 335" fill="none" xmlns="http://www.w3.org/2000/svg">
<rect width="335" height="335" fill="#4282FC"/>
<path d="M37.2074 174.31V162.037L95.5028 135.105V150.233L54.0824 168.003L54.5511 167.193V169.153L54.0824 168.344L95.5028 186.114V201.241L37.2074 174.31ZM114.498 211V199.58L144.796 169.878C147.694 166.952 150.109 164.352 152.04 162.08C153.972 159.807 155.421 157.605 156.387 155.474C157.353 153.344 157.836 151.071 157.836 148.656C157.836 145.901 157.211 143.543 155.961 141.582C154.711 139.594 152.992 138.06 150.805 136.98C148.617 135.901 146.131 135.361 143.347 135.361C140.478 135.361 137.964 135.957 135.805 137.151C133.646 138.315 131.969 139.977 130.776 142.136C129.612 144.295 129.029 146.866 129.029 149.849H113.987C113.987 144.31 115.251 139.494 117.779 135.403C120.308 131.312 123.788 128.145 128.219 125.901C132.68 123.656 137.793 122.534 143.56 122.534C149.413 122.534 154.555 123.628 158.987 125.815C163.418 128.003 166.856 131 169.299 134.807C171.771 138.614 173.006 142.96 173.006 147.847C173.006 151.114 172.381 154.324 171.131 157.477C169.881 160.631 167.68 164.125 164.526 167.96C161.401 171.795 157.012 176.44 151.359 181.895L136.316 197.193V197.79H174.327V211H114.498ZM224.825 119.636L196.7 224.125H183.191L211.316 119.636H224.825ZM296.245 182.491L237.95 209.423V194.295L279.37 176.526L278.901 177.335V175.375L279.37 176.185L237.95 158.415V143.287L296.245 170.219V182.491Z" fill="white"/>
</svg>
